# xmcd
#
# Track frame offsets:
#	150
#	13130
#	26863
#	40105
#	57435
#	68970
#	84215
#	96655
#	112423
#	124945
#	136615
#	150930
#	163280
#	175915
#	186323
#	200658
#	214205
#	228845
#	243233
#	258095
#	270365
#	282255
#	292915
#	301938
#	312757
#
# Disc length: 4387 seconds
#
# Revision: 1
# Processed by: cddbd v1.4PL0 Copyright (c) Steve Scherf et al.
# Submitted via: EasyCDDAExtractor 5.0.6
#
DISCID=66112119
DTITLE=Percy Sledge - Collection
DYEAR=1994
DGENRE=Blues
TTITLE0=When a Man Loves a Woman
TTITLE1=My Special Prayer
TTITLE2=Take Time to Know Her
TTITLE3=Try a Little Tenderness
TTITLE4=Sitting on the Dock of the Bay
TTITLE5=Out of Left Field
TTITLE6=It Tears Me Up
TTITLE7=Just Out of Reach
TTITLE8=Cover Me
TTITLE9=Tell It Like It Is
TTITLE10=I'll Be Your Everything
TTITLE11=Sudden Stop
TTITLE12=Behind Closed Doors
TTITLE13=Blue Water
TTITLE14=Hard to be Friends
TTITLE15=I Believe in You
TTITLE16=If This is the Last Time
TTITLE17=Love Away People
TTITLE18=Warm and Tender Love
TTITLE19=My Adorable One
TTITLE20=The Good Love
TTITLE21=Thief in the City
TTITLE22=Walkin' in the Sun
TTITLE23=You're Pouring Water on a Drowning Man
TTITLE24=Make It Good and Make It Last
EXTD=
EXTT0=
EXTT1=
EXTT2=
EXTT3=
EXTT4=
EXTT5=
EXTT6=
EXTT7=
EXTT8=
EXTT9=
EXTT10=
EXTT11=
EXTT12=
EXTT13=
EXTT14=
EXTT15=
EXTT16=
EXTT17=
EXTT18=
EXTT19=
EXTT20=
EXTT21=
EXTT22=
EXTT23=
EXTT24=
PLAYORDER=
